<mxfile host="app.diagrams.net" modified="2023-01-17T09:29:18.436Z" agent="5.0 (Windows NT 10.0; Win64; x64) AppleWebKit/537.36 (KHTML, like Gecko) Chrome/108.0.0.0 Safari/537.36" etag="fH7u95Kd73Sr6Ce87GNf" version="20.8.5" type="github" pages="2">
  <diagram id="eppBDKNscmFUNIZ72CPj" name="Page-1">
    <mxGraphModel dx="1434" dy="764" grid="1" gridSize="10" guides="1" tooltips="1" connect="1" arrows="1" fold="1" page="1" pageScale="1" pageWidth="827" pageHeight="1169" math="0" shadow="0">
      <root>
        <mxCell id="0" />
        <mxCell id="1" parent="0" />
        <mxCell id="s0hoI6elI7DxWSXrg5EM-18" value="" style="group" vertex="1" connectable="0" parent="1">
          <mxGeometry x="60" y="40" width="250" height="180" as="geometry" />
        </mxCell>
        <mxCell id="s0hoI6elI7DxWSXrg5EM-1" value="订单1" style="rounded=0;whiteSpace=wrap;html=1;" vertex="1" parent="s0hoI6elI7DxWSXrg5EM-18">
          <mxGeometry y="50" width="100" height="30" as="geometry" />
        </mxCell>
        <mxCell id="s0hoI6elI7DxWSXrg5EM-9" value="组织1" style="rounded=0;whiteSpace=wrap;html=1;" vertex="1" parent="s0hoI6elI7DxWSXrg5EM-18">
          <mxGeometry x="150" width="100" height="30" as="geometry" />
        </mxCell>
        <mxCell id="s0hoI6elI7DxWSXrg5EM-11" value="" style="edgeStyle=orthogonalEdgeStyle;rounded=0;orthogonalLoop=1;jettySize=auto;html=1;entryX=0;entryY=0.5;entryDx=0;entryDy=0;" edge="1" parent="s0hoI6elI7DxWSXrg5EM-18" source="s0hoI6elI7DxWSXrg5EM-1" target="s0hoI6elI7DxWSXrg5EM-9">
          <mxGeometry relative="1" as="geometry" />
        </mxCell>
        <mxCell id="s0hoI6elI7DxWSXrg5EM-12" value="组织2" style="rounded=0;whiteSpace=wrap;html=1;" vertex="1" parent="s0hoI6elI7DxWSXrg5EM-18">
          <mxGeometry x="150" y="50" width="100" height="30" as="geometry" />
        </mxCell>
        <mxCell id="s0hoI6elI7DxWSXrg5EM-14" style="edgeStyle=orthogonalEdgeStyle;rounded=0;orthogonalLoop=1;jettySize=auto;html=1;exitX=1;exitY=0.5;exitDx=0;exitDy=0;entryX=0;entryY=0.5;entryDx=0;entryDy=0;" edge="1" parent="s0hoI6elI7DxWSXrg5EM-18" source="s0hoI6elI7DxWSXrg5EM-1" target="s0hoI6elI7DxWSXrg5EM-12">
          <mxGeometry relative="1" as="geometry" />
        </mxCell>
        <mxCell id="s0hoI6elI7DxWSXrg5EM-13" value="组织3" style="rounded=0;whiteSpace=wrap;html=1;" vertex="1" parent="s0hoI6elI7DxWSXrg5EM-18">
          <mxGeometry x="150" y="100" width="100" height="30" as="geometry" />
        </mxCell>
        <mxCell id="s0hoI6elI7DxWSXrg5EM-15" style="edgeStyle=orthogonalEdgeStyle;rounded=0;orthogonalLoop=1;jettySize=auto;html=1;exitX=1;exitY=0.5;exitDx=0;exitDy=0;entryX=0;entryY=0.5;entryDx=0;entryDy=0;" edge="1" parent="s0hoI6elI7DxWSXrg5EM-18" source="s0hoI6elI7DxWSXrg5EM-1" target="s0hoI6elI7DxWSXrg5EM-13">
          <mxGeometry relative="1" as="geometry" />
        </mxCell>
        <mxCell id="s0hoI6elI7DxWSXrg5EM-16" value="组织4" style="rounded=0;whiteSpace=wrap;html=1;" vertex="1" parent="s0hoI6elI7DxWSXrg5EM-18">
          <mxGeometry x="150" y="150" width="100" height="30" as="geometry" />
        </mxCell>
        <mxCell id="s0hoI6elI7DxWSXrg5EM-17" style="edgeStyle=orthogonalEdgeStyle;rounded=0;orthogonalLoop=1;jettySize=auto;html=1;exitX=1;exitY=0.5;exitDx=0;exitDy=0;entryX=0;entryY=0.25;entryDx=0;entryDy=0;" edge="1" parent="s0hoI6elI7DxWSXrg5EM-18" source="s0hoI6elI7DxWSXrg5EM-1" target="s0hoI6elI7DxWSXrg5EM-16">
          <mxGeometry relative="1" as="geometry" />
        </mxCell>
        <mxCell id="s0hoI6elI7DxWSXrg5EM-89" style="rounded=0;orthogonalLoop=1;jettySize=auto;html=1;exitX=1;exitY=0.5;exitDx=0;exitDy=0;entryX=0;entryY=0.5;entryDx=0;entryDy=0;" edge="1" parent="1" source="s0hoI6elI7DxWSXrg5EM-46" target="s0hoI6elI7DxWSXrg5EM-88">
          <mxGeometry relative="1" as="geometry" />
        </mxCell>
        <mxCell id="s0hoI6elI7DxWSXrg5EM-46" value="用户1,2,3,4,5" style="whiteSpace=wrap;html=1;rounded=0;" vertex="1" parent="1">
          <mxGeometry x="380" y="36.25" width="110" height="37.5" as="geometry" />
        </mxCell>
        <mxCell id="s0hoI6elI7DxWSXrg5EM-47" value="" style="edgeStyle=orthogonalEdgeStyle;rounded=0;orthogonalLoop=1;jettySize=auto;html=1;" edge="1" parent="1" source="s0hoI6elI7DxWSXrg5EM-9" target="s0hoI6elI7DxWSXrg5EM-46">
          <mxGeometry relative="1" as="geometry" />
        </mxCell>
        <mxCell id="s0hoI6elI7DxWSXrg5EM-91" style="edgeStyle=none;rounded=0;orthogonalLoop=1;jettySize=auto;html=1;exitX=1;exitY=0.5;exitDx=0;exitDy=0;entryX=0;entryY=0.5;entryDx=0;entryDy=0;" edge="1" parent="1" source="s0hoI6elI7DxWSXrg5EM-49" target="s0hoI6elI7DxWSXrg5EM-88">
          <mxGeometry relative="1" as="geometry" />
        </mxCell>
        <mxCell id="s0hoI6elI7DxWSXrg5EM-49" value="用户4,5,6,7" style="whiteSpace=wrap;html=1;rounded=0;" vertex="1" parent="1">
          <mxGeometry x="380" y="86.25" width="110" height="37.5" as="geometry" />
        </mxCell>
        <mxCell id="s0hoI6elI7DxWSXrg5EM-50" style="edgeStyle=orthogonalEdgeStyle;rounded=0;orthogonalLoop=1;jettySize=auto;html=1;exitX=1;exitY=0.5;exitDx=0;exitDy=0;entryX=0;entryY=0.5;entryDx=0;entryDy=0;" edge="1" parent="1" source="s0hoI6elI7DxWSXrg5EM-12" target="s0hoI6elI7DxWSXrg5EM-49">
          <mxGeometry relative="1" as="geometry" />
        </mxCell>
        <mxCell id="s0hoI6elI7DxWSXrg5EM-92" style="edgeStyle=none;rounded=0;orthogonalLoop=1;jettySize=auto;html=1;exitX=1;exitY=0.5;exitDx=0;exitDy=0;entryX=0;entryY=0.5;entryDx=0;entryDy=0;" edge="1" parent="1" source="s0hoI6elI7DxWSXrg5EM-51" target="s0hoI6elI7DxWSXrg5EM-88">
          <mxGeometry relative="1" as="geometry" />
        </mxCell>
        <mxCell id="s0hoI6elI7DxWSXrg5EM-51" value="用户6,8,9" style="whiteSpace=wrap;html=1;rounded=0;" vertex="1" parent="1">
          <mxGeometry x="380" y="136.25" width="110" height="37.5" as="geometry" />
        </mxCell>
        <mxCell id="s0hoI6elI7DxWSXrg5EM-52" style="edgeStyle=orthogonalEdgeStyle;rounded=0;orthogonalLoop=1;jettySize=auto;html=1;exitX=1;exitY=0.5;exitDx=0;exitDy=0;entryX=0;entryY=0.5;entryDx=0;entryDy=0;" edge="1" parent="1" source="s0hoI6elI7DxWSXrg5EM-13" target="s0hoI6elI7DxWSXrg5EM-51">
          <mxGeometry relative="1" as="geometry" />
        </mxCell>
        <mxCell id="s0hoI6elI7DxWSXrg5EM-93" style="edgeStyle=none;rounded=0;orthogonalLoop=1;jettySize=auto;html=1;exitX=1;exitY=0.25;exitDx=0;exitDy=0;entryX=0;entryY=0.5;entryDx=0;entryDy=0;" edge="1" parent="1" source="s0hoI6elI7DxWSXrg5EM-53" target="s0hoI6elI7DxWSXrg5EM-88">
          <mxGeometry relative="1" as="geometry" />
        </mxCell>
        <mxCell id="s0hoI6elI7DxWSXrg5EM-53" value="用户6,7,10" style="whiteSpace=wrap;html=1;rounded=0;" vertex="1" parent="1">
          <mxGeometry x="380" y="186.25" width="110" height="37.5" as="geometry" />
        </mxCell>
        <mxCell id="s0hoI6elI7DxWSXrg5EM-54" style="edgeStyle=orthogonalEdgeStyle;rounded=0;orthogonalLoop=1;jettySize=auto;html=1;exitX=1;exitY=0.5;exitDx=0;exitDy=0;entryX=0;entryY=0.5;entryDx=0;entryDy=0;" edge="1" parent="1" source="s0hoI6elI7DxWSXrg5EM-16" target="s0hoI6elI7DxWSXrg5EM-53">
          <mxGeometry relative="1" as="geometry" />
        </mxCell>
        <mxCell id="s0hoI6elI7DxWSXrg5EM-95" value="" style="edgeStyle=none;rounded=0;orthogonalLoop=1;jettySize=auto;html=1;" edge="1" parent="1" source="s0hoI6elI7DxWSXrg5EM-88" target="s0hoI6elI7DxWSXrg5EM-94">
          <mxGeometry relative="1" as="geometry" />
        </mxCell>
        <mxCell id="s0hoI6elI7DxWSXrg5EM-88" value="内部去重" style="rounded=0;whiteSpace=wrap;html=1;" vertex="1" parent="1">
          <mxGeometry x="560" y="110" width="100" height="40" as="geometry" />
        </mxCell>
        <mxCell id="s0hoI6elI7DxWSXrg5EM-109" style="edgeStyle=orthogonalEdgeStyle;rounded=0;orthogonalLoop=1;jettySize=auto;html=1;exitX=1;exitY=0.5;exitDx=0;exitDy=0;entryX=0;entryY=0.5;entryDx=0;entryDy=0;" edge="1" parent="1" source="s0hoI6elI7DxWSXrg5EM-94" target="s0hoI6elI7DxWSXrg5EM-108">
          <mxGeometry relative="1" as="geometry" />
        </mxCell>
        <mxCell id="s0hoI6elI7DxWSXrg5EM-94" value="用户：1,2,3,4,5,6,7,8,9，10" style="rounded=0;whiteSpace=wrap;html=1;" vertex="1" parent="1">
          <mxGeometry x="700" y="110" width="150" height="40" as="geometry" />
        </mxCell>
        <mxCell id="s0hoI6elI7DxWSXrg5EM-102" style="edgeStyle=none;rounded=0;orthogonalLoop=1;jettySize=auto;html=1;exitX=1;exitY=0.5;exitDx=0;exitDy=0;entryX=0;entryY=0.5;entryDx=0;entryDy=0;" edge="1" parent="1" source="s0hoI6elI7DxWSXrg5EM-96" target="s0hoI6elI7DxWSXrg5EM-101">
          <mxGeometry relative="1" as="geometry" />
        </mxCell>
        <mxCell id="s0hoI6elI7DxWSXrg5EM-96" value="内部去重" style="rounded=0;whiteSpace=wrap;html=1;" vertex="1" parent="1">
          <mxGeometry x="560" y="330" width="100" height="40" as="geometry" />
        </mxCell>
        <mxCell id="s0hoI6elI7DxWSXrg5EM-97" style="edgeStyle=none;rounded=0;orthogonalLoop=1;jettySize=auto;html=1;exitX=1;exitY=0.5;exitDx=0;exitDy=0;entryX=0;entryY=0.75;entryDx=0;entryDy=0;" edge="1" parent="1" source="s0hoI6elI7DxWSXrg5EM-55" target="s0hoI6elI7DxWSXrg5EM-96">
          <mxGeometry relative="1" as="geometry" />
        </mxCell>
        <mxCell id="s0hoI6elI7DxWSXrg5EM-98" style="edgeStyle=none;rounded=0;orthogonalLoop=1;jettySize=auto;html=1;exitX=1;exitY=0.5;exitDx=0;exitDy=0;entryX=0;entryY=0.75;entryDx=0;entryDy=0;" edge="1" parent="1" source="s0hoI6elI7DxWSXrg5EM-57" target="s0hoI6elI7DxWSXrg5EM-96">
          <mxGeometry relative="1" as="geometry" />
        </mxCell>
        <mxCell id="s0hoI6elI7DxWSXrg5EM-19" value="" style="group" vertex="1" connectable="0" parent="1">
          <mxGeometry x="60" y="260" width="250" height="180" as="geometry" />
        </mxCell>
        <mxCell id="s0hoI6elI7DxWSXrg5EM-20" value="订单2" style="rounded=0;whiteSpace=wrap;html=1;" vertex="1" parent="s0hoI6elI7DxWSXrg5EM-19">
          <mxGeometry y="50" width="100" height="30" as="geometry" />
        </mxCell>
        <mxCell id="s0hoI6elI7DxWSXrg5EM-21" value="组织1" style="rounded=0;whiteSpace=wrap;html=1;" vertex="1" parent="s0hoI6elI7DxWSXrg5EM-19">
          <mxGeometry x="150" width="100" height="30" as="geometry" />
        </mxCell>
        <mxCell id="s0hoI6elI7DxWSXrg5EM-22" value="" style="edgeStyle=orthogonalEdgeStyle;rounded=0;orthogonalLoop=1;jettySize=auto;html=1;entryX=0;entryY=0.5;entryDx=0;entryDy=0;" edge="1" parent="s0hoI6elI7DxWSXrg5EM-19" source="s0hoI6elI7DxWSXrg5EM-20" target="s0hoI6elI7DxWSXrg5EM-21">
          <mxGeometry relative="1" as="geometry" />
        </mxCell>
        <mxCell id="s0hoI6elI7DxWSXrg5EM-23" value="组织2" style="rounded=0;whiteSpace=wrap;html=1;" vertex="1" parent="s0hoI6elI7DxWSXrg5EM-19">
          <mxGeometry x="150" y="50" width="100" height="30" as="geometry" />
        </mxCell>
        <mxCell id="s0hoI6elI7DxWSXrg5EM-24" style="edgeStyle=orthogonalEdgeStyle;rounded=0;orthogonalLoop=1;jettySize=auto;html=1;exitX=1;exitY=0.5;exitDx=0;exitDy=0;entryX=0;entryY=0.5;entryDx=0;entryDy=0;" edge="1" parent="s0hoI6elI7DxWSXrg5EM-19" source="s0hoI6elI7DxWSXrg5EM-20" target="s0hoI6elI7DxWSXrg5EM-23">
          <mxGeometry relative="1" as="geometry" />
        </mxCell>
        <mxCell id="s0hoI6elI7DxWSXrg5EM-25" value="组织5" style="rounded=0;whiteSpace=wrap;html=1;" vertex="1" parent="s0hoI6elI7DxWSXrg5EM-19">
          <mxGeometry x="150" y="100" width="100" height="30" as="geometry" />
        </mxCell>
        <mxCell id="s0hoI6elI7DxWSXrg5EM-26" style="edgeStyle=orthogonalEdgeStyle;rounded=0;orthogonalLoop=1;jettySize=auto;html=1;exitX=1;exitY=0.5;exitDx=0;exitDy=0;entryX=0;entryY=0.5;entryDx=0;entryDy=0;" edge="1" parent="s0hoI6elI7DxWSXrg5EM-19" source="s0hoI6elI7DxWSXrg5EM-20" target="s0hoI6elI7DxWSXrg5EM-25">
          <mxGeometry relative="1" as="geometry" />
        </mxCell>
        <mxCell id="s0hoI6elI7DxWSXrg5EM-27" value="组织6" style="rounded=0;whiteSpace=wrap;html=1;" vertex="1" parent="s0hoI6elI7DxWSXrg5EM-19">
          <mxGeometry x="150" y="150" width="100" height="30" as="geometry" />
        </mxCell>
        <mxCell id="s0hoI6elI7DxWSXrg5EM-28" style="edgeStyle=orthogonalEdgeStyle;rounded=0;orthogonalLoop=1;jettySize=auto;html=1;exitX=1;exitY=0.5;exitDx=0;exitDy=0;entryX=0;entryY=0.25;entryDx=0;entryDy=0;" edge="1" parent="s0hoI6elI7DxWSXrg5EM-19" source="s0hoI6elI7DxWSXrg5EM-20" target="s0hoI6elI7DxWSXrg5EM-27">
          <mxGeometry relative="1" as="geometry" />
        </mxCell>
        <mxCell id="s0hoI6elI7DxWSXrg5EM-55" value="用户1,2,3,4,5" style="whiteSpace=wrap;html=1;rounded=0;" vertex="1" parent="1">
          <mxGeometry x="380" y="256.25" width="110" height="37.5" as="geometry" />
        </mxCell>
        <mxCell id="s0hoI6elI7DxWSXrg5EM-56" style="edgeStyle=orthogonalEdgeStyle;rounded=0;orthogonalLoop=1;jettySize=auto;html=1;entryX=0;entryY=0.5;entryDx=0;entryDy=0;" edge="1" parent="1" source="s0hoI6elI7DxWSXrg5EM-21" target="s0hoI6elI7DxWSXrg5EM-55">
          <mxGeometry relative="1" as="geometry" />
        </mxCell>
        <mxCell id="s0hoI6elI7DxWSXrg5EM-57" value="用户4,5,6,7" style="whiteSpace=wrap;html=1;rounded=0;" vertex="1" parent="1">
          <mxGeometry x="380" y="306.25" width="110" height="37.5" as="geometry" />
        </mxCell>
        <mxCell id="s0hoI6elI7DxWSXrg5EM-58" style="edgeStyle=orthogonalEdgeStyle;rounded=0;orthogonalLoop=1;jettySize=auto;html=1;exitX=1;exitY=0.5;exitDx=0;exitDy=0;entryX=0;entryY=0.5;entryDx=0;entryDy=0;" edge="1" parent="1" source="s0hoI6elI7DxWSXrg5EM-23" target="s0hoI6elI7DxWSXrg5EM-57">
          <mxGeometry relative="1" as="geometry" />
        </mxCell>
        <mxCell id="s0hoI6elI7DxWSXrg5EM-99" style="edgeStyle=none;rounded=0;orthogonalLoop=1;jettySize=auto;html=1;exitX=1;exitY=0.5;exitDx=0;exitDy=0;entryX=0;entryY=0.75;entryDx=0;entryDy=0;" edge="1" parent="1" source="s0hoI6elI7DxWSXrg5EM-59" target="s0hoI6elI7DxWSXrg5EM-96">
          <mxGeometry relative="1" as="geometry" />
        </mxCell>
        <mxCell id="s0hoI6elI7DxWSXrg5EM-59" value="用户8,9,10" style="whiteSpace=wrap;html=1;rounded=0;" vertex="1" parent="1">
          <mxGeometry x="380" y="356.25" width="110" height="37.5" as="geometry" />
        </mxCell>
        <mxCell id="s0hoI6elI7DxWSXrg5EM-100" style="edgeStyle=none;rounded=0;orthogonalLoop=1;jettySize=auto;html=1;entryX=0;entryY=0.75;entryDx=0;entryDy=0;exitX=1;exitY=0.25;exitDx=0;exitDy=0;" edge="1" parent="1" source="s0hoI6elI7DxWSXrg5EM-60" target="s0hoI6elI7DxWSXrg5EM-96">
          <mxGeometry relative="1" as="geometry" />
        </mxCell>
        <mxCell id="s0hoI6elI7DxWSXrg5EM-60" value="用户11,12,13" style="whiteSpace=wrap;html=1;rounded=0;" vertex="1" parent="1">
          <mxGeometry x="380" y="406.25" width="110" height="37.5" as="geometry" />
        </mxCell>
        <mxCell id="s0hoI6elI7DxWSXrg5EM-61" style="edgeStyle=orthogonalEdgeStyle;rounded=0;orthogonalLoop=1;jettySize=auto;html=1;exitX=1;exitY=0.5;exitDx=0;exitDy=0;" edge="1" parent="1" source="s0hoI6elI7DxWSXrg5EM-27" target="s0hoI6elI7DxWSXrg5EM-60">
          <mxGeometry relative="1" as="geometry" />
        </mxCell>
        <mxCell id="s0hoI6elI7DxWSXrg5EM-62" style="edgeStyle=orthogonalEdgeStyle;rounded=0;orthogonalLoop=1;jettySize=auto;html=1;exitX=1;exitY=0.5;exitDx=0;exitDy=0;entryX=0;entryY=0.5;entryDx=0;entryDy=0;" edge="1" parent="1" source="s0hoI6elI7DxWSXrg5EM-25" target="s0hoI6elI7DxWSXrg5EM-59">
          <mxGeometry relative="1" as="geometry" />
        </mxCell>
        <mxCell id="s0hoI6elI7DxWSXrg5EM-112" style="edgeStyle=orthogonalEdgeStyle;rounded=0;orthogonalLoop=1;jettySize=auto;html=1;exitX=1;exitY=0.5;exitDx=0;exitDy=0;entryX=0;entryY=0.5;entryDx=0;entryDy=0;" edge="1" parent="1" source="s0hoI6elI7DxWSXrg5EM-101" target="s0hoI6elI7DxWSXrg5EM-108">
          <mxGeometry relative="1" as="geometry" />
        </mxCell>
        <mxCell id="s0hoI6elI7DxWSXrg5EM-101" value="用户：1,2,3,4,5,6,7,8,9，10,11,12,13" style="rounded=0;whiteSpace=wrap;html=1;" vertex="1" parent="1">
          <mxGeometry x="700" y="330" width="150" height="40" as="geometry" />
        </mxCell>
        <mxCell id="s0hoI6elI7DxWSXrg5EM-107" style="edgeStyle=none;rounded=0;orthogonalLoop=1;jettySize=auto;html=1;exitX=1;exitY=0.5;exitDx=0;exitDy=0;entryX=0;entryY=0.5;entryDx=0;entryDy=0;" edge="1" parent="1" source="s0hoI6elI7DxWSXrg5EM-103" target="s0hoI6elI7DxWSXrg5EM-104">
          <mxGeometry relative="1" as="geometry" />
        </mxCell>
        <mxCell id="s0hoI6elI7DxWSXrg5EM-103" value="内部去重" style="rounded=0;whiteSpace=wrap;html=1;" vertex="1" parent="1">
          <mxGeometry x="560" y="550" width="100" height="40" as="geometry" />
        </mxCell>
        <mxCell id="s0hoI6elI7DxWSXrg5EM-111" style="edgeStyle=orthogonalEdgeStyle;rounded=0;orthogonalLoop=1;jettySize=auto;html=1;exitX=1;exitY=0.5;exitDx=0;exitDy=0;entryX=0;entryY=0.5;entryDx=0;entryDy=0;" edge="1" parent="1" source="s0hoI6elI7DxWSXrg5EM-104" target="s0hoI6elI7DxWSXrg5EM-108">
          <mxGeometry relative="1" as="geometry" />
        </mxCell>
        <mxCell id="s0hoI6elI7DxWSXrg5EM-104" value="用户： 4,5,6,7,8,9,10" style="rounded=0;whiteSpace=wrap;html=1;" vertex="1" parent="1">
          <mxGeometry x="700" y="550" width="150" height="40" as="geometry" />
        </mxCell>
        <mxCell id="s0hoI6elI7DxWSXrg5EM-105" style="edgeStyle=none;rounded=0;orthogonalLoop=1;jettySize=auto;html=1;exitX=1;exitY=0.5;exitDx=0;exitDy=0;entryX=0;entryY=0.5;entryDx=0;entryDy=0;" edge="1" parent="1" source="s0hoI6elI7DxWSXrg5EM-75" target="s0hoI6elI7DxWSXrg5EM-103">
          <mxGeometry relative="1" as="geometry" />
        </mxCell>
        <mxCell id="s0hoI6elI7DxWSXrg5EM-65" value="" style="group" vertex="1" connectable="0" parent="1">
          <mxGeometry x="60" y="513.75" width="250" height="180" as="geometry" />
        </mxCell>
        <mxCell id="s0hoI6elI7DxWSXrg5EM-66" value="订单3" style="rounded=0;whiteSpace=wrap;html=1;" vertex="1" parent="s0hoI6elI7DxWSXrg5EM-65">
          <mxGeometry y="50" width="100" height="30" as="geometry" />
        </mxCell>
        <mxCell id="s0hoI6elI7DxWSXrg5EM-67" value="组织5" style="rounded=0;whiteSpace=wrap;html=1;" vertex="1" parent="s0hoI6elI7DxWSXrg5EM-65">
          <mxGeometry x="150" width="100" height="30" as="geometry" />
        </mxCell>
        <mxCell id="s0hoI6elI7DxWSXrg5EM-68" value="" style="edgeStyle=orthogonalEdgeStyle;rounded=0;orthogonalLoop=1;jettySize=auto;html=1;entryX=0;entryY=0.5;entryDx=0;entryDy=0;" edge="1" parent="s0hoI6elI7DxWSXrg5EM-65" source="s0hoI6elI7DxWSXrg5EM-66" target="s0hoI6elI7DxWSXrg5EM-67">
          <mxGeometry relative="1" as="geometry" />
        </mxCell>
        <mxCell id="s0hoI6elI7DxWSXrg5EM-69" value="组织7" style="rounded=0;whiteSpace=wrap;html=1;" vertex="1" parent="s0hoI6elI7DxWSXrg5EM-65">
          <mxGeometry x="150" y="86.25" width="100" height="30" as="geometry" />
        </mxCell>
        <mxCell id="s0hoI6elI7DxWSXrg5EM-70" style="edgeStyle=orthogonalEdgeStyle;rounded=0;orthogonalLoop=1;jettySize=auto;html=1;exitX=1;exitY=0.5;exitDx=0;exitDy=0;entryX=0;entryY=0.5;entryDx=0;entryDy=0;" edge="1" parent="s0hoI6elI7DxWSXrg5EM-65" source="s0hoI6elI7DxWSXrg5EM-66" target="s0hoI6elI7DxWSXrg5EM-69">
          <mxGeometry relative="1" as="geometry" />
        </mxCell>
        <mxCell id="s0hoI6elI7DxWSXrg5EM-75" value="用户8,9,10" style="whiteSpace=wrap;html=1;rounded=0;" vertex="1" parent="1">
          <mxGeometry x="390" y="510" width="110" height="37.5" as="geometry" />
        </mxCell>
        <mxCell id="s0hoI6elI7DxWSXrg5EM-76" style="edgeStyle=orthogonalEdgeStyle;rounded=0;orthogonalLoop=1;jettySize=auto;html=1;entryX=0;entryY=0.5;entryDx=0;entryDy=0;" edge="1" parent="1" source="s0hoI6elI7DxWSXrg5EM-67" target="s0hoI6elI7DxWSXrg5EM-75">
          <mxGeometry relative="1" as="geometry" />
        </mxCell>
        <mxCell id="s0hoI6elI7DxWSXrg5EM-106" style="edgeStyle=none;rounded=0;orthogonalLoop=1;jettySize=auto;html=1;exitX=1;exitY=0.25;exitDx=0;exitDy=0;" edge="1" parent="1" source="s0hoI6elI7DxWSXrg5EM-77">
          <mxGeometry relative="1" as="geometry">
            <mxPoint x="560" y="570" as="targetPoint" />
          </mxGeometry>
        </mxCell>
        <mxCell id="s0hoI6elI7DxWSXrg5EM-77" value="用户4,5,6,7" style="whiteSpace=wrap;html=1;rounded=0;" vertex="1" parent="1">
          <mxGeometry x="390" y="596.25" width="110" height="37.5" as="geometry" />
        </mxCell>
        <mxCell id="s0hoI6elI7DxWSXrg5EM-78" style="edgeStyle=orthogonalEdgeStyle;rounded=0;orthogonalLoop=1;jettySize=auto;html=1;exitX=1;exitY=0.5;exitDx=0;exitDy=0;entryX=0;entryY=0.5;entryDx=0;entryDy=0;" edge="1" parent="1" source="s0hoI6elI7DxWSXrg5EM-69" target="s0hoI6elI7DxWSXrg5EM-77">
          <mxGeometry relative="1" as="geometry" />
        </mxCell>
        <mxCell id="s0hoI6elI7DxWSXrg5EM-108" value="&lt;font style=&quot;font-size: 14px;&quot;&gt;统计3个订单的最终结果：&lt;br&gt;用户1,2,3：2个&lt;br&gt;用户4,5,6,7,8,9,10：3个&lt;br&gt;用户11,12,13：1个&lt;/font&gt;" style="rounded=0;whiteSpace=wrap;html=1;align=left;" vertex="1" parent="1">
          <mxGeometry x="1020" y="306.25" width="240" height="90" as="geometry" />
        </mxCell>
      </root>
    </mxGraphModel>
  </diagram>
  <diagram id="9rL5L918kPEEiDsSH4N7" name="第 2 页">
    <mxGraphModel dx="1038" dy="556" grid="1" gridSize="10" guides="1" tooltips="1" connect="1" arrows="1" fold="1" page="1" pageScale="1" pageWidth="827" pageHeight="1169" math="0" shadow="0">
      <root>
        <mxCell id="0" />
        <mxCell id="1" parent="0" />
        <mxCell id="OOvZ5F88C5ZpXP3dPj9k-1" value="Pool" style="swimlane;html=1;childLayout=stackLayout;startSize=20;rounded=0;shadow=0;labelBackgroundColor=none;strokeWidth=1;fontFamily=Verdana;fontSize=8;align=center;" vertex="1" parent="1">
          <mxGeometry x="20" y="20" width="960" height="750" as="geometry" />
        </mxCell>
        <mxCell id="OOvZ5F88C5ZpXP3dPj9k-2" value="Lane 1" style="swimlane;html=1;startSize=20;" vertex="1" parent="OOvZ5F88C5ZpXP3dPj9k-1">
          <mxGeometry y="20" width="160" height="730" as="geometry" />
        </mxCell>
        <mxCell id="OOvZ5F88C5ZpXP3dPj9k-3" value="" style="rounded=1;whiteSpace=wrap;html=1;shadow=0;labelBackgroundColor=none;strokeWidth=1;fontFamily=Verdana;fontSize=8;align=center;" vertex="1" parent="OOvZ5F88C5ZpXP3dPj9k-2">
          <mxGeometry x="20" y="65" width="100" height="60" as="geometry" />
        </mxCell>
        <mxCell id="OOvZ5F88C5ZpXP3dPj9k-4" value="" style="rounded=1;whiteSpace=wrap;html=1;shadow=0;labelBackgroundColor=none;strokeWidth=1;fontFamily=Verdana;fontSize=8;align=center;" vertex="1" parent="OOvZ5F88C5ZpXP3dPj9k-2">
          <mxGeometry x="20" y="155" width="100" height="60" as="geometry" />
        </mxCell>
        <mxCell id="OOvZ5F88C5ZpXP3dPj9k-5" value="" style="rounded=1;whiteSpace=wrap;html=1;shadow=0;labelBackgroundColor=none;strokeWidth=1;fontFamily=Verdana;fontSize=8;align=center;" vertex="1" parent="OOvZ5F88C5ZpXP3dPj9k-2">
          <mxGeometry x="30" y="560" width="100" height="60" as="geometry" />
        </mxCell>
        <mxCell id="OOvZ5F88C5ZpXP3dPj9k-6" style="edgeStyle=orthogonalEdgeStyle;rounded=1;html=1;labelBackgroundColor=none;startArrow=none;startFill=0;startSize=5;endArrow=classicThin;endFill=1;endSize=5;jettySize=auto;orthogonalLoop=1;strokeWidth=1;fontFamily=Verdana;fontSize=8" edge="1" parent="OOvZ5F88C5ZpXP3dPj9k-1" source="OOvZ5F88C5ZpXP3dPj9k-3" target="OOvZ5F88C5ZpXP3dPj9k-22">
          <mxGeometry relative="1" as="geometry" />
        </mxCell>
        <mxCell id="OOvZ5F88C5ZpXP3dPj9k-7" style="edgeStyle=orthogonalEdgeStyle;rounded=1;html=1;labelBackgroundColor=none;startArrow=none;startFill=0;startSize=5;endArrow=classicThin;endFill=1;endSize=5;jettySize=auto;orthogonalLoop=1;strokeWidth=1;fontFamily=Verdana;fontSize=8" edge="1" parent="OOvZ5F88C5ZpXP3dPj9k-1" source="OOvZ5F88C5ZpXP3dPj9k-22" target="OOvZ5F88C5ZpXP3dPj9k-4">
          <mxGeometry relative="1" as="geometry">
            <Array as="points">
              <mxPoint x="240" y="155" />
              <mxPoint x="70" y="155" />
            </Array>
          </mxGeometry>
        </mxCell>
        <mxCell id="OOvZ5F88C5ZpXP3dPj9k-8" style="edgeStyle=orthogonalEdgeStyle;rounded=1;html=1;labelBackgroundColor=none;startArrow=none;startFill=0;startSize=5;endArrow=classicThin;endFill=1;endSize=5;jettySize=auto;orthogonalLoop=1;strokeWidth=1;fontFamily=Verdana;fontSize=8" edge="1" parent="OOvZ5F88C5ZpXP3dPj9k-1" source="OOvZ5F88C5ZpXP3dPj9k-4" target="OOvZ5F88C5ZpXP3dPj9k-24">
          <mxGeometry relative="1" as="geometry" />
        </mxCell>
        <mxCell id="OOvZ5F88C5ZpXP3dPj9k-9" style="edgeStyle=orthogonalEdgeStyle;rounded=1;html=1;labelBackgroundColor=none;startArrow=none;startFill=0;startSize=5;endArrow=classicThin;endFill=1;endSize=5;jettySize=auto;orthogonalLoop=1;strokeWidth=1;fontFamily=Verdana;fontSize=8" edge="1" parent="OOvZ5F88C5ZpXP3dPj9k-1" source="OOvZ5F88C5ZpXP3dPj9k-25" target="OOvZ5F88C5ZpXP3dPj9k-4">
          <mxGeometry relative="1" as="geometry" />
        </mxCell>
        <mxCell id="OOvZ5F88C5ZpXP3dPj9k-10" style="edgeStyle=orthogonalEdgeStyle;rounded=1;html=1;labelBackgroundColor=none;startArrow=none;startFill=0;startSize=5;endArrow=classicThin;endFill=1;endSize=5;jettySize=auto;orthogonalLoop=1;strokeWidth=1;fontFamily=Verdana;fontSize=8" edge="1" parent="OOvZ5F88C5ZpXP3dPj9k-1" source="OOvZ5F88C5ZpXP3dPj9k-30" target="OOvZ5F88C5ZpXP3dPj9k-4">
          <mxGeometry relative="1" as="geometry" />
        </mxCell>
        <mxCell id="OOvZ5F88C5ZpXP3dPj9k-11" style="edgeStyle=orthogonalEdgeStyle;rounded=1;html=1;labelBackgroundColor=none;startArrow=none;startFill=0;startSize=5;endArrow=classicThin;endFill=1;endSize=5;jettySize=auto;orthogonalLoop=1;strokeWidth=1;fontFamily=Verdana;fontSize=8" edge="1" parent="OOvZ5F88C5ZpXP3dPj9k-1" source="OOvZ5F88C5ZpXP3dPj9k-33" target="OOvZ5F88C5ZpXP3dPj9k-4">
          <mxGeometry relative="1" as="geometry">
            <Array as="points">
              <mxPoint x="20" y="690" />
              <mxPoint x="20" y="370" />
              <mxPoint x="70" y="370" />
            </Array>
          </mxGeometry>
        </mxCell>
        <mxCell id="OOvZ5F88C5ZpXP3dPj9k-12" style="edgeStyle=orthogonalEdgeStyle;rounded=1;html=1;labelBackgroundColor=none;startArrow=none;startFill=0;startSize=5;endArrow=classicThin;endFill=1;endSize=5;jettySize=auto;orthogonalLoop=1;strokeWidth=1;fontFamily=Verdana;fontSize=8" edge="1" parent="OOvZ5F88C5ZpXP3dPj9k-1" source="OOvZ5F88C5ZpXP3dPj9k-25" target="OOvZ5F88C5ZpXP3dPj9k-29">
          <mxGeometry relative="1" as="geometry" />
        </mxCell>
        <mxCell id="OOvZ5F88C5ZpXP3dPj9k-13" style="edgeStyle=orthogonalEdgeStyle;rounded=1;html=1;labelBackgroundColor=none;startArrow=none;startFill=0;startSize=5;endArrow=classicThin;endFill=1;endSize=5;jettySize=auto;orthogonalLoop=1;strokeWidth=1;fontFamily=Verdana;fontSize=8" edge="1" parent="OOvZ5F88C5ZpXP3dPj9k-1" source="OOvZ5F88C5ZpXP3dPj9k-33" target="OOvZ5F88C5ZpXP3dPj9k-41">
          <mxGeometry relative="1" as="geometry" />
        </mxCell>
        <mxCell id="OOvZ5F88C5ZpXP3dPj9k-14" style="edgeStyle=orthogonalEdgeStyle;rounded=1;html=1;labelBackgroundColor=none;startArrow=none;startFill=0;startSize=5;endArrow=classicThin;endFill=1;endSize=5;jettySize=auto;orthogonalLoop=1;strokeWidth=1;fontFamily=Verdana;fontSize=8" edge="1" parent="OOvZ5F88C5ZpXP3dPj9k-1" source="OOvZ5F88C5ZpXP3dPj9k-41" target="OOvZ5F88C5ZpXP3dPj9k-45">
          <mxGeometry relative="1" as="geometry" />
        </mxCell>
        <mxCell id="OOvZ5F88C5ZpXP3dPj9k-15" style="edgeStyle=orthogonalEdgeStyle;rounded=1;html=1;labelBackgroundColor=none;startArrow=none;startFill=0;startSize=5;endArrow=classicThin;endFill=1;endSize=5;jettySize=auto;orthogonalLoop=1;strokeWidth=1;fontFamily=Verdana;fontSize=8" edge="1" parent="OOvZ5F88C5ZpXP3dPj9k-1" source="OOvZ5F88C5ZpXP3dPj9k-31" target="OOvZ5F88C5ZpXP3dPj9k-38">
          <mxGeometry relative="1" as="geometry" />
        </mxCell>
        <mxCell id="OOvZ5F88C5ZpXP3dPj9k-16" style="edgeStyle=orthogonalEdgeStyle;rounded=1;html=1;labelBackgroundColor=none;startArrow=none;startFill=0;startSize=5;endArrow=classicThin;endFill=1;endSize=5;jettySize=auto;orthogonalLoop=1;strokeWidth=1;fontFamily=Verdana;fontSize=8" edge="1" parent="OOvZ5F88C5ZpXP3dPj9k-1" source="OOvZ5F88C5ZpXP3dPj9k-40" target="OOvZ5F88C5ZpXP3dPj9k-26">
          <mxGeometry relative="1" as="geometry">
            <Array as="points">
              <mxPoint x="660" y="610" />
              <mxPoint x="660" y="550" />
              <mxPoint x="400" y="550" />
            </Array>
          </mxGeometry>
        </mxCell>
        <mxCell id="OOvZ5F88C5ZpXP3dPj9k-17" style="edgeStyle=orthogonalEdgeStyle;rounded=1;html=1;labelBackgroundColor=none;startArrow=none;startFill=0;startSize=5;endArrow=classicThin;endFill=1;endSize=5;jettySize=auto;orthogonalLoop=1;strokeColor=#000000;strokeWidth=1;fontFamily=Verdana;fontSize=8;fontColor=#000000;" edge="1" parent="OOvZ5F88C5ZpXP3dPj9k-1" source="OOvZ5F88C5ZpXP3dPj9k-40" target="OOvZ5F88C5ZpXP3dPj9k-32">
          <mxGeometry relative="1" as="geometry" />
        </mxCell>
        <mxCell id="OOvZ5F88C5ZpXP3dPj9k-18" style="edgeStyle=orthogonalEdgeStyle;rounded=1;html=1;labelBackgroundColor=none;startArrow=none;startFill=0;startSize=5;endArrow=classicThin;endFill=1;endSize=5;jettySize=auto;orthogonalLoop=1;strokeWidth=1;fontFamily=Verdana;fontSize=8" edge="1" parent="OOvZ5F88C5ZpXP3dPj9k-1" source="OOvZ5F88C5ZpXP3dPj9k-40" target="OOvZ5F88C5ZpXP3dPj9k-5">
          <mxGeometry relative="1" as="geometry">
            <Array as="points">
              <mxPoint x="660" y="610" />
              <mxPoint x="660" y="550" />
              <mxPoint x="80" y="550" />
            </Array>
          </mxGeometry>
        </mxCell>
        <mxCell id="OOvZ5F88C5ZpXP3dPj9k-19" style="edgeStyle=orthogonalEdgeStyle;rounded=1;html=1;labelBackgroundColor=none;startArrow=none;startFill=0;startSize=5;endArrow=classicThin;endFill=1;endSize=5;jettySize=auto;orthogonalLoop=1;strokeWidth=1;fontFamily=Verdana;fontSize=8" edge="1" parent="OOvZ5F88C5ZpXP3dPj9k-1" source="OOvZ5F88C5ZpXP3dPj9k-5" target="OOvZ5F88C5ZpXP3dPj9k-32">
          <mxGeometry relative="1" as="geometry">
            <Array as="points">
              <mxPoint x="80" y="650" />
              <mxPoint x="490" y="650" />
              <mxPoint x="490" y="610" />
            </Array>
          </mxGeometry>
        </mxCell>
        <mxCell id="OOvZ5F88C5ZpXP3dPj9k-20" style="edgeStyle=orthogonalEdgeStyle;rounded=1;html=1;labelBackgroundColor=none;startArrow=none;startFill=0;startSize=5;endArrow=classicThin;endFill=1;endSize=5;jettySize=auto;orthogonalLoop=1;strokeWidth=1;fontFamily=Verdana;fontSize=8" edge="1" parent="OOvZ5F88C5ZpXP3dPj9k-1" source="OOvZ5F88C5ZpXP3dPj9k-26" target="OOvZ5F88C5ZpXP3dPj9k-32">
          <mxGeometry relative="1" as="geometry" />
        </mxCell>
        <mxCell id="OOvZ5F88C5ZpXP3dPj9k-21" value="Lane 2" style="swimlane;html=1;startSize=20;" vertex="1" parent="OOvZ5F88C5ZpXP3dPj9k-1">
          <mxGeometry x="160" y="20" width="160" height="730" as="geometry" />
        </mxCell>
        <mxCell id="OOvZ5F88C5ZpXP3dPj9k-22" value="" style="rounded=1;whiteSpace=wrap;html=1;shadow=0;labelBackgroundColor=none;strokeWidth=1;fontFamily=Verdana;fontSize=8;align=center;" vertex="1" parent="OOvZ5F88C5ZpXP3dPj9k-21">
          <mxGeometry x="30" y="65" width="100" height="60" as="geometry" />
        </mxCell>
        <mxCell id="OOvZ5F88C5ZpXP3dPj9k-23" value="Lane 3" style="swimlane;html=1;startSize=20;" vertex="1" parent="OOvZ5F88C5ZpXP3dPj9k-1">
          <mxGeometry x="320" y="20" width="160" height="730" as="geometry" />
        </mxCell>
        <mxCell id="OOvZ5F88C5ZpXP3dPj9k-24" value="" style="rounded=1;whiteSpace=wrap;html=1;shadow=0;labelBackgroundColor=none;strokeWidth=1;fontFamily=Verdana;fontSize=8;align=center;" vertex="1" parent="OOvZ5F88C5ZpXP3dPj9k-23">
          <mxGeometry x="30" y="155" width="100" height="60" as="geometry" />
        </mxCell>
        <mxCell id="OOvZ5F88C5ZpXP3dPj9k-25" value="" style="rhombus;whiteSpace=wrap;html=1;rounded=0;shadow=0;labelBackgroundColor=none;strokeWidth=1;fontFamily=Verdana;fontSize=8;align=center;" vertex="1" parent="OOvZ5F88C5ZpXP3dPj9k-23">
          <mxGeometry x="40" y="240" width="80" height="60" as="geometry" />
        </mxCell>
        <mxCell id="OOvZ5F88C5ZpXP3dPj9k-26" value="" style="rounded=1;whiteSpace=wrap;html=1;shadow=0;labelBackgroundColor=none;strokeWidth=1;fontFamily=Verdana;fontSize=8;align=center;" vertex="1" parent="OOvZ5F88C5ZpXP3dPj9k-23">
          <mxGeometry x="30" y="560" width="100" height="60" as="geometry" />
        </mxCell>
        <mxCell id="OOvZ5F88C5ZpXP3dPj9k-27" style="edgeStyle=orthogonalEdgeStyle;rounded=1;html=1;labelBackgroundColor=none;startArrow=none;startFill=0;startSize=5;endArrow=classicThin;endFill=1;endSize=5;jettySize=auto;orthogonalLoop=1;strokeWidth=1;fontFamily=Verdana;fontSize=8" edge="1" parent="OOvZ5F88C5ZpXP3dPj9k-23" source="OOvZ5F88C5ZpXP3dPj9k-24" target="OOvZ5F88C5ZpXP3dPj9k-25">
          <mxGeometry relative="1" as="geometry" />
        </mxCell>
        <mxCell id="OOvZ5F88C5ZpXP3dPj9k-28" value="Lane 4" style="swimlane;html=1;startSize=20;" vertex="1" parent="OOvZ5F88C5ZpXP3dPj9k-1">
          <mxGeometry x="480" y="20" width="160" height="730" as="geometry" />
        </mxCell>
        <mxCell id="OOvZ5F88C5ZpXP3dPj9k-29" value="" style="rounded=1;whiteSpace=wrap;html=1;shadow=0;labelBackgroundColor=none;strokeWidth=1;fontFamily=Verdana;fontSize=8;align=center;" vertex="1" parent="OOvZ5F88C5ZpXP3dPj9k-28">
          <mxGeometry x="30" y="240" width="100" height="60" as="geometry" />
        </mxCell>
        <mxCell id="OOvZ5F88C5ZpXP3dPj9k-30" value="" style="rhombus;whiteSpace=wrap;html=1;rounded=0;shadow=0;labelBackgroundColor=none;strokeWidth=1;fontFamily=Verdana;fontSize=8;align=center;" vertex="1" parent="OOvZ5F88C5ZpXP3dPj9k-28">
          <mxGeometry x="40" y="320" width="80" height="60" as="geometry" />
        </mxCell>
        <mxCell id="OOvZ5F88C5ZpXP3dPj9k-31" value="" style="rounded=1;whiteSpace=wrap;html=1;shadow=0;labelBackgroundColor=none;strokeWidth=1;fontFamily=Verdana;fontSize=8;align=center;" vertex="1" parent="OOvZ5F88C5ZpXP3dPj9k-28">
          <mxGeometry x="30" y="400" width="100" height="60" as="geometry" />
        </mxCell>
        <mxCell id="OOvZ5F88C5ZpXP3dPj9k-32" value="" style="rounded=1;whiteSpace=wrap;html=1;shadow=0;labelBackgroundColor=none;strokeWidth=1;fontFamily=Verdana;fontSize=8;align=center;" vertex="1" parent="OOvZ5F88C5ZpXP3dPj9k-28">
          <mxGeometry x="30" y="560" width="100" height="60" as="geometry" />
        </mxCell>
        <mxCell id="OOvZ5F88C5ZpXP3dPj9k-33" value="" style="rhombus;whiteSpace=wrap;html=1;rounded=0;shadow=0;labelBackgroundColor=none;strokeWidth=1;fontFamily=Verdana;fontSize=8;align=center;" vertex="1" parent="OOvZ5F88C5ZpXP3dPj9k-28">
          <mxGeometry x="40" y="640" width="80" height="60" as="geometry" />
        </mxCell>
        <mxCell id="OOvZ5F88C5ZpXP3dPj9k-34" style="edgeStyle=orthogonalEdgeStyle;rounded=1;html=1;labelBackgroundColor=none;startArrow=none;startFill=0;startSize=5;endArrow=classicThin;endFill=1;endSize=5;jettySize=auto;orthogonalLoop=1;strokeColor=#000000;strokeWidth=1;fontFamily=Verdana;fontSize=8;fontColor=#000000;" edge="1" parent="OOvZ5F88C5ZpXP3dPj9k-28" source="OOvZ5F88C5ZpXP3dPj9k-29" target="OOvZ5F88C5ZpXP3dPj9k-30">
          <mxGeometry relative="1" as="geometry" />
        </mxCell>
        <mxCell id="OOvZ5F88C5ZpXP3dPj9k-35" style="edgeStyle=orthogonalEdgeStyle;rounded=1;html=1;labelBackgroundColor=none;startArrow=none;startFill=0;startSize=5;endArrow=classicThin;endFill=1;endSize=5;jettySize=auto;orthogonalLoop=1;strokeWidth=1;fontFamily=Verdana;fontSize=8" edge="1" parent="OOvZ5F88C5ZpXP3dPj9k-28" source="OOvZ5F88C5ZpXP3dPj9k-30" target="OOvZ5F88C5ZpXP3dPj9k-31">
          <mxGeometry relative="1" as="geometry" />
        </mxCell>
        <mxCell id="OOvZ5F88C5ZpXP3dPj9k-36" style="edgeStyle=orthogonalEdgeStyle;rounded=1;html=1;labelBackgroundColor=none;startArrow=none;startFill=0;startSize=5;endArrow=classicThin;endFill=1;endSize=5;jettySize=auto;orthogonalLoop=1;strokeWidth=1;fontFamily=Verdana;fontSize=8" edge="1" parent="OOvZ5F88C5ZpXP3dPj9k-28" source="OOvZ5F88C5ZpXP3dPj9k-32" target="OOvZ5F88C5ZpXP3dPj9k-33">
          <mxGeometry relative="1" as="geometry" />
        </mxCell>
        <mxCell id="OOvZ5F88C5ZpXP3dPj9k-37" value="Lane 5" style="swimlane;html=1;startSize=20;" vertex="1" parent="OOvZ5F88C5ZpXP3dPj9k-1">
          <mxGeometry x="640" y="20" width="160" height="730" as="geometry" />
        </mxCell>
        <mxCell id="OOvZ5F88C5ZpXP3dPj9k-38" value="" style="rounded=1;whiteSpace=wrap;html=1;shadow=0;labelBackgroundColor=none;strokeWidth=1;fontFamily=Verdana;fontSize=8;align=center;" vertex="1" parent="OOvZ5F88C5ZpXP3dPj9k-37">
          <mxGeometry x="30" y="400" width="100" height="60" as="geometry" />
        </mxCell>
        <mxCell id="OOvZ5F88C5ZpXP3dPj9k-39" value="" style="rounded=1;whiteSpace=wrap;html=1;shadow=0;labelBackgroundColor=none;strokeWidth=1;fontFamily=Verdana;fontSize=8;align=center;" vertex="1" parent="OOvZ5F88C5ZpXP3dPj9k-37">
          <mxGeometry x="30" y="480" width="100" height="60" as="geometry" />
        </mxCell>
        <mxCell id="OOvZ5F88C5ZpXP3dPj9k-40" value="" style="rounded=1;whiteSpace=wrap;html=1;shadow=0;labelBackgroundColor=none;strokeWidth=1;fontFamily=Verdana;fontSize=8;align=center;" vertex="1" parent="OOvZ5F88C5ZpXP3dPj9k-37">
          <mxGeometry x="30" y="560" width="100" height="60" as="geometry" />
        </mxCell>
        <mxCell id="OOvZ5F88C5ZpXP3dPj9k-41" value="" style="rounded=1;whiteSpace=wrap;html=1;shadow=0;labelBackgroundColor=none;strokeWidth=1;fontFamily=Verdana;fontSize=8;align=center;" vertex="1" parent="OOvZ5F88C5ZpXP3dPj9k-37">
          <mxGeometry x="30" y="640" width="100" height="60" as="geometry" />
        </mxCell>
        <mxCell id="OOvZ5F88C5ZpXP3dPj9k-42" style="edgeStyle=orthogonalEdgeStyle;rounded=1;html=1;labelBackgroundColor=none;startArrow=none;startFill=0;startSize=5;endArrow=classicThin;endFill=1;endSize=5;jettySize=auto;orthogonalLoop=1;strokeWidth=1;fontFamily=Verdana;fontSize=8" edge="1" parent="OOvZ5F88C5ZpXP3dPj9k-37" source="OOvZ5F88C5ZpXP3dPj9k-38" target="OOvZ5F88C5ZpXP3dPj9k-39">
          <mxGeometry relative="1" as="geometry" />
        </mxCell>
        <mxCell id="OOvZ5F88C5ZpXP3dPj9k-43" style="edgeStyle=orthogonalEdgeStyle;rounded=1;html=1;labelBackgroundColor=none;startArrow=none;startFill=0;startSize=5;endArrow=classicThin;endFill=1;endSize=5;jettySize=auto;orthogonalLoop=1;strokeWidth=1;fontFamily=Verdana;fontSize=8" edge="1" parent="OOvZ5F88C5ZpXP3dPj9k-37" source="OOvZ5F88C5ZpXP3dPj9k-39" target="OOvZ5F88C5ZpXP3dPj9k-40">
          <mxGeometry relative="1" as="geometry" />
        </mxCell>
        <mxCell id="OOvZ5F88C5ZpXP3dPj9k-44" value="Lane 6" style="swimlane;html=1;startSize=20;" vertex="1" parent="OOvZ5F88C5ZpXP3dPj9k-1">
          <mxGeometry x="800" y="20" width="160" height="730" as="geometry" />
        </mxCell>
        <mxCell id="OOvZ5F88C5ZpXP3dPj9k-45" value="" style="rounded=1;whiteSpace=wrap;html=1;shadow=0;labelBackgroundColor=none;strokeWidth=1;fontFamily=Verdana;fontSize=8;align=center;" vertex="1" parent="OOvZ5F88C5ZpXP3dPj9k-44">
          <mxGeometry x="30" y="640" width="100" height="60" as="geometry" />
        </mxCell>
      </root>
    </mxGraphModel>
  </diagram>
</mxfile>
